#!OML:ASF E:\Steps\Project 1\Capture day 1\Session 2\Subject.ASF
:FULLY-SPECIFIED
:DEGREES
80
root 8.88832 16.2477 31.6817 -161.979 -1.17616 181.088
lowerback -22.9166 -1.07105 -3.50411
upperback 0.316166 -0.667901 -0.139933
thorax 13.3183 -0.627272 1.60439
lowerneck 1.3356 -2.98552 -4.11175
upperneck -12.0088 -2.70408 8.8725
head -3.58061 -1.30272 3.45934
rclavicle -1.2921e-015 -5.96354e-015
rhumerus -35.3336 -17.8872 -79.8303
rradius 31.7793
rwrist 0.900285
rhand -6.66595 -50.5539
rfingers 7.12502
rthumb 19.1921 -79.6269
lclavicle -1.2921e-015 -5.96354e-015
lhumerus -28.2808 4.49885 81.5194
lradius 21.6397
lwrist -5.25911
lhand -20.5096 -15.6472
lfingers 7.12502
lthumb 5.84786 14.2521
rfemur -16.0059 8.21477 20.8339
rtibia 9.56032
rfoot -20.8887 -7.73869
rtoes -29.7203
lfemur -17.5552 -9.50969 -17.0651
ltibia 10.1326
lfoot -8.9999 2.60748
ltoes -42.4764
81
root 8.88837 16.2467 31.6864 -162.058 -1.25501 181.393
lowerback -22.7998 -0.996277 -3.16408
upperback 0.29836 -0.670438 -0.0821257
thorax 13.2275 -0.60532 1.47562
lowerneck 1.45954 -2.97667 -4.08187
upperneck -12.0591 -2.68884 8.88974
head -3.61769 -1.30087 3.46217
rclavicle -9.0447e-015 -1.78906e-014
rhumerus -35.3723 -17.6601 -80.0122
rradius 32.1232
rwrist 0.925951
rhand -6.58216 -51.066
rfingers 7.12502
rthumb 19.2726 -80.131
lclavicle -9.0447e-015 -1.78906e-014
lhumerus -28.1808 4.47285 81.523
lradius 21.8311
lwrist -5.38643
lhand -20.8173 -15.4505
lfingers 7.12502
lthumb 5.55073 14.4568
rfemur -15.9596 8.05652 21.2292
rtibia 9.60459
rfoot -20.8576 -7.62174
rtoes -29.639
lfemur -17.4724 -9.47594 -16.6968
ltibia 10.0653
lfoot -9.07133 2.60454
ltoes -41.4764
82
root 8.88969 16.2465 31.6901 -162.096 -1.32984 181.526
lowerback -22.7232 -0.94674 -3.02105
upperback 0.2655 -0.64938 -0.0673298
thorax 13.1429 -0.585636 1.41833
lowerneck 1.56896 -2.97607 -4.0481
upperneck -12.0804 -2.68552 8.91828
head -3.64272 -1.30527 3.46743
rclavicle -9.93923e-017 -1.15295e-014
rhumerus -35.4287 -17.445 -80.1743
rradius 32.3915
rwrist 0.789341
rhand -6.61478 -51.2431
rfingers 7.12502
rthumb 19.2413 -80.3112
lclavicle -9.93923e-017 -1.15295e-014
lhumerus -28.2408 4.04919 81.6751
lradius 22.2658
lwrist -5.08834
lhand -21.1178 -14.758
lfingers 7.12502
lthumb 5.26059 15.1567
rfemur -15.9281 8.06416 21.4236
rtibia 9.58105
rfoot -20.7557 -7.80273
rtoes -30.3874
lfemur -17.4459 -9.59598 -16.5066
ltibia 10.0312
lfoot -9.16435 2.62811
ltoes -39.9442
83
root 8.89361 16.2477 31.6905 -162.06 -1.28825 181.459
lowerback -22.7576 -0.937468 -3.16057
upperback 0.243007 -0.601205 -0.074461
thorax 13.1353 -0.573638 1.50605
lowerneck 1.55225 -2.17647 -4.01993
upperneck -12.1328 -2.8609 8.79311
head -3.65884 -1.9272 3.46587
rclavicle 7.35503e-015 1.19271e-014
rhumerus -35.3682 -17.2807 -80.278
rradius 32.5631
rwrist 0.665001
rhand -6.54232 -51.1079
rfingers 7.12502
rthumb 19.3109 -80.169
lclavicle 7.35503e-015 1.19271e-014
lhumerus -28.2823 3.62951 81.8677
lradius 22.7249
lwrist -4.70358
lhand -20.7177 -15.1372
lfingers 7.12502
lthumb 5.64691 14.7675
rfemur -15.9873 8.17629 21.346
rtibia 9.56587
rfoot -20.6628 -7.95259
rtoes -30.8549
lfemur -17.4963 -9.65173 -16.5428
ltibia 10.03
lfoot -9.11746 2.6683
ltoes -40.5929
84
root 8.89461 16.2471 31.6927 -162.05 -1.29525 181.498
lowerback -22.7559 -0.941412 -3.14578
upperback 0.232938 -0.613928 -0.0540344
thorax 13.1233 -0.579339 1.51647
lowerneck 1.53368 -2.1766 -4.00089
upperneck -12.1341 -2.86161 8.79027
head -3.65647 -1.92859 3.46159
rclavicle 1.2921e-015 4.37326e-015
rhumerus -35.2274 -17.1247 -80.4005
rradius 32.6776
rwrist 0.605371
rhand -6.51832 -50.8631
rfingers 7.12502
rthumb 19.334 -79.922
lclavicle 1.2921e-015 4.37326e-015
lhumerus -28.2208 3.65372 81.883
lradius 23.0461
lwrist -4.66234
lhand -20.2072 -15.6854
lfingers 7.12502
lthumb 6.13979 14.2056
rfemur -15.989 8.47829 21.3878
rtibia 9.54654
rfoot -20.6183 -8.20159
rtoes -30.5755
lfemur -17.5402 -9.60029 -16.4855
ltibia 10.0804
lfoot -9.06386 2.67561
ltoes -41.7808
85
root 8.89152 16.247 31.6917 -162.001 -1.20443 181.452
lowerback -22.8758 -0.922224 -3.14105
upperback 0.239632 -0.582068 -0.095167
thorax 13.1968 -0.564621 1.47674
lowerneck 1.60211 -2.18257 -3.96697
upperneck -12.2648 -2.86886 8.82934
head -3.70653 -1.94329 3.47255
rclavicle 3.97569e-016 -5.1684e-015
rhumerus -34.965 -17.0858 -80.5379
rradius 32.6115
rwrist 0.554256
rhand -6.63346 -50.9121
rfingers 7.12502
rthumb 19.2233 -79.9821
lclavicle 3.97569e-016 -5.1684e-015
lhumerus -28.1112 3.63861 81.8995
lradius 23.2617
lwrist -4.53643
lhand -20.4658 -15.6484
lfingers 7.12502
lthumb 5.89015 14.2498
rfemur -16.0729 8.77237 21.259
rtibia 9.56741
rfoot -20.6443 -8.40848
rtoes -30.6561
lfemur -17.5923 -9.69598 -16.5314
ltibia 10.089
lfoot -9.14473 2.88831
ltoes -41.6873
86
root 8.8948 16.2507 31.692 -161.733 -0.971681 181.011
lowerback -23.2108 -0.971966 -3.64414
upperback 0.21847 -0.495217 -0.212586
thorax 13.3612 -0.561122 1.65812
lowerneck 1.63219 -2.17708 -3.99976
upperneck -12.4025 -2.86431 8.85878
head -3.7522 -1.94837 3.49081
rclavicle 5.46658e-015 1.66979e-014
rhumerus -34.5088 -17.2344 -80.6149
rradius 32.2822
rwrist 0.620506
rhand -7.02586 -51.2397
rfingers 7.12502
rthumb 18.846 -80.3468
lclavicle 5.46658e-015 1.66979e-014
lhumerus -28.1091 3.35916 82.0533
lradius 23.7504
lwrist -4.18328
lhand -20.0335 -17.9444
lfingers 7.12502
lthumb 6.3075 11.9417
rfemur -16.472 8.78105 20.6613
rtibia 9.66768
rfoot -20.6555 -8.33698
rtoes -30.9764
lfemur -17.8775 -9.61716 -17.0281
ltibia 10.1193
lfoot -9.23528 2.86056
ltoes -41.3505
87
root 8.89202 16.2605 31.6898 -161.382 -0.720412 180.18
lowerback -23.6289 -1.08721 -4.48607
upperback 0.160087 -0.390304 -0.43598
thorax 13.5285 -0.572926 1.91823
lowerneck 1.57119 -2.15326 -4.04403
upperneck -12.3631 -2.83562 8.82703
head -3.73192 -1.92771 3.4855
rclavicle -6.4605e-015 -5.56597e-015
rhumerus -34.266 -17.3155 -80.6579
rradius 32.188
rwrist 0.683429
rhand -7.37674 -51.0075
rfingers 7.12502
rthumb 18.5085 -80.147
lclavicle -6.4605e-015 -5.56597e-015
lhumerus -28.2199 2.97153 82.2352
lradius 24.4007
lwrist -3.78778
lhand -19.3929 -17.5929
lfingers 7.12502
lthumb 6.92585 12.2739
rfemur -16.9085 8.40571 19.5569
rtibia 9.71159
rfoot -20.6636 -8.01447
rtoes -30.9904
lfemur -18.195 -9.80161 -18.05
ltibia 10.1223
lfoot -9.22271 2.95123
ltoes -41.1907
88
root 8.89514 16.2531 31.6887 -161.828 -0.776155 180.917
lowerback -23.2143 -0.902369 -3.75061
upperback 0.262368 -0.365711 -0.241511
thorax 13.4077 -0.508 1.73059
lowerneck 1.50475 -2.12911 -4.05228
upperneck -12.2299 -2.80268 8.78654
head -3.68357 -1.90144 3.4691
rclavicle -4.96962e-016 -4.77083e-015
rhumerus -34.3077 -17.1442 -80.7266
rradius 32.4444
rwrist 0.524575
rhand -7.52761 -50.4968
rfingers 7.12502
rthumb 18.3633 -79.65
lclavicle -4.96962e-016 -4.77083e-015
lhumerus -28.089 2.84028 82.3195
lradius 24.4986
lwrist -3.6791
lhand -19.1864 -17.1558
lfingers 7.12502
lthumb 7.1252 12.7043
rfemur -16.3868 8.73946 20.5107
rtibia 9.63425
rfoot -20.6447 -8.06604
rtoes -30.6953
lfemur -17.6869 -9.6068 -17.1895
ltibia 10.0219
lfoot -9.11 3.03352
ltoes -41.0496
89
root 8.89932 16.2525 31.6882 -162.091 -0.859532 181.107
lowerback -22.9641 -0.884924 -3.6001
upperback 0.324291 -0.389442 -0.175252
thorax 13.3391 -0.50588 1.71346
lowerneck 1.47704 -2.10512 -4.05171
upperneck -12.1747 -2.77007 8.76877
head -3.66486 -1.88139 3.46083
rclavicle 3.97569e-016 1.31198e-014
rhumerus -34.423 -16.8207 -80.8319
rradius 32.8443
rwrist 0.3177
rhand -7.43153 -50.5787
rfingers 7.12502
rthumb 18.4558 -79.7232
lclavicle 3.97569e-016 1.31198e-014
lhumerus -27.8965 2.91856 82.3229
lradius 24.388
lwrist -3.84907
lhand -19.4639 -17.0456
lfingers 7.12502
lthumb 6.85738 12.8234
rfemur -16.0339 8.87622 20.8168
rtibia 9.5418
rfoot -20.5573 -8.21434
rtoes -30.5
lfemur -17.3922 -9.52192 -16.9619
ltibia 9.98698
lfoot -9.01189 2.9499
ltoes -41.5012
90
root 8.89855 16.2567 31.6937 -162.194 -0.885302 181.242
lowerback -22.7618 -0.855743 -3.45553
upperback 0.323691 -0.397756 -0.144094
thorax 13.223 -0.497416 1.66454
lowerneck 1.50518 -2.11005 -4.00234
upperneck -12.2516 -2.77608 8.78918
head -3.69267 -1.89232 3.46143
rclavicle -3.27995e-015 -2.3059e-014
rhumerus -34.5115 -16.6088 -80.9287
rradius 33.1754
rwrist 0.282155
rhand -6.9182 -50.5804
rfingers 7.12502
rthumb 18.9495 -79.6773
lclavicle -3.27995e-015 -2.3059e-014
lhumerus -27.8601 2.91665 82.3307
lradius 24.4668
lwrist -4.05944
lhand -19.9811 -15.8101
lfingers 7.12502
lthumb 6.35805 14.0744
rfemur -15.9781 8.99875 20.9703
rtibia 9.59293
rfoot -20.5451 -8.33644
rtoes -30.3624
lfemur -17.3142 -9.68947 -16.7725
ltibia 9.97656
lfoot -8.98913 3.13364
ltoes -42.4176
91
root 8.89823 16.259 31.7091 -162.261 -0.696241 181.383
lowerback -22.4761 -0.777594 -3.33986
upperback 0.292206 -0.34017 -0.0990071
thorax 13.0202 -0.460462 1.67025
lowerneck 1.57796 -2.10378 -3.99872
upperneck -12.4055 -2.77013 8.79981
head -3.75145 -1.89824 3.46885
rclavicle 5.96354e-016 7.95139e-016
rhumerus -34.3997 -16.5097 -80.9854
rradius 33.2073
rwrist 0.313727
rhand -6.79621 -50.8004
rfingers 7.12502
rthumb 19.0668 -79.8859
lclavicle 5.96354e-016 7.95139e-016
lhumerus -27.8487 2.94359 82.3815
lradius 24.6014
lwrist -4.17377
lhand -19.3764 -16.9461
lfingers 7.12502
lthumb 6.94185 12.9201
rfemur -16.0637 9.07459 21.0628
rtibia 9.65142
rfoot -20.4879 -8.20143
rtoes -30.2037
lfemur -17.2826 -9.95958 -16.5388
ltibia 9.93709
lfoot -8.96863 3.64692
ltoes -42.5325
92
root 8.90077 16.2581 31.7027 -162.054 -0.903505 181.153
lowerback -22.7922 -0.940777 -3.60529
upperback 0.271138 -0.480778 -0.105193
thorax 13.1856 -0.548328 1.76622
lowerneck 1.55868 -2.91935 -4.07874
upperneck -12.34 -2.56987 8.92544
head -3.72572 -1.24027 3.47527
rclavicle 3.47873e-015 1.59028e-015
rhumerus -34.2421 -16.363 -81.0567
rradius 33.2167
rwrist 0.293287
rhand -7.1075 -51.5566
rfingers 7.12502
rthumb 18.7674 -80.6713
lclavicle 3.47873e-015 1.59028e-015
lhumerus -27.9582 2.76604 82.4964
lradius 25.0544
lwrist -3.90072
lhand -19.0512 -16.9743
lfingers 7.12502
lthumb 7.25572 12.8813
rfemur -16.0824 8.6286 20.847
rtibia 9.34603
rfoot -20.3753 -8.03575
rtoes -30.1485
lfemur -17.5092 -10.0522 -16.7723
ltibia 9.93584
lfoot -8.92826 3.42072
ltoes -41.6226
93
root 8.89771 16.2656 31.7126 -161.754 -0.657888 180.24
lowerback -22.9696 -1.07674 -4.51506
upperback 0.188737 -0.396177 -0.367806
thorax 13.1907 -0.56733 2.01575
lowerneck 1.48456 -2.92893 -4.08526
upperneck -12.3362 -2.57651 8.93766
head -3.71128 -1.24038 3.47896
rclavicle -3.08116e-015 2.66371e-014
rhumerus -34.1148 -16.239 -81.1614
rradius 33.2771
rwrist 0.281619
rhand -7.11101 -51.6986
rfingers 7.12502
rthumb 18.7641 -80.8136
lclavicle -3.08116e-015 2.66371e-014
lhumerus -28.154 2.30402 82.6331
lradius 25.6992
lwrist -3.36277
lhand -18.8246 -16.4186
lfingers 7.12502
lthumb 7.4745 13.4294
rfemur -16.5167 8.50261 19.6555
rtibia 9.46298
rfoot -20.3225 -8.12654
rtoes -31.0098
lfemur -17.8423 -10.1985 -17.8866
ltibia 10.0356
lfoot -8.97934 3.49039
ltoes -41.2914
